<?xml version="1.0" encoding="utf-8"?>
<!-- Generator: Adobe Illustrator 22.0.1, SVG Export Plug-In . SVG Version: 6.00 Build 0)  -->
<svg version="1.1" id="Layer_1" xmlns="http://www.w3.org/2000/svg" xmlns:xlink="http://www.w3.org/1999/xlink" x="0px" y="0px"
	 viewBox="0 0 595.3 841.9" style="enable-background:new 0 0 595.3 841.9;" xml:space="preserve">
<style type="text/css">
	.st0{fill:#F15A22;}
	.st1{fill:#FFFFFF;}
</style>
<g>
	<rect x="96.3" y="101.3" class="st0" width="372.6" height="204.8"/>
	<path class="st1" d="M115.1,278.5c0-5.8,4.1-9.5,9.2-9.5c3.5,0,5.8,1.9,7.1,4.1l-3,1.8c-0.8-1.3-2.3-2.4-4.1-2.4
		c-3.1,0-5.4,2.5-5.4,6c0,3.5,2.3,6,5.4,6c1.5,0,2.9-0.7,3.6-1.4v-2.2h-4.5v-3.4h8.2v7c-1.7,2.1-4.2,3.4-7.3,3.4
		C119.2,288,115.1,284.3,115.1,278.5 M145.2,288v-3.5H138v-15.4h-3.7V288H145.2z M146.2,278.5c0,5.5,3.8,9.5,9,9.5
		c5.2,0,9-3.9,9-9.5c0-5.5-3.8-9.5-9-9.5C150,269.1,146.2,273,146.2,278.5 M160.4,278.5c0,3.4-2,6-5.2,6c-3.2,0-5.2-2.6-5.2-6
		c0-3.4,2-6,5.2-6C158.3,272.5,160.4,275.1,160.4,278.5 M176,288c3.3,0,5-2.3,5-5.1c0-2.4-1.4-4.3-3.3-4.6c1.6-0.4,3-2,3-4.3
		c0-2.5-1.7-4.8-4.9-4.8h-9V288H176z M176.9,274.6c0,1.2-0.8,2-2,2h-4.6v-4h4.6C176.2,272.6,176.9,273.4,176.9,274.6 M177.3,282.3
		c0,1.4-0.8,2.2-2.2,2.2h-4.7v-4.3h4.7C176.5,280.1,177.3,281.1,177.3,282.3 M199.8,288l-6.6-18.9h-4.6L182,288h4.1l1.1-3.2h7.4
		l1.1,3.2H199.8z M193.5,281.2h-5.4l2.7-8.1L193.5,281.2z M212.1,288v-3.5h-7.3v-15.4h-3.7V288H212.1z M237.2,288v-13.6l-4.8,13.6
		h-1.6l-4.8-13.6V288h-3.7v-18.9h5.1l4.2,11.8l4.2-11.8h5.1V288H237.2z M243.5,278.5c0,5.5,3.8,9.5,9,9.5c5.2,0,9-3.9,9-9.5
		c0-5.5-3.8-9.5-9-9.5C247.3,269.1,243.5,273,243.5,278.5 M257.7,278.5c0,3.4-2,6-5.2,6c-3.2,0-5.2-2.6-5.2-6c0-3.4,2-6,5.2-6
		C255.6,272.5,257.7,275.1,257.7,278.5 M279.4,288v-18.9h-3.7v11.9l-7.9-11.9H264V288h3.7v-12.3l8.2,12.3H279.4z M294.9,288v-3.5
		h-8.5v-4.3h8.3v-3.5h-8.3v-4h8.5v-3.5h-12.1V288H294.9z M306.2,288v-7.7l6.6-11.2h-4.1l-4.2,7.6l-4.2-7.6H296l6.6,11.2v7.7H306.2z
		 M327.9,288v-15.4h-5v-3.5h13.7v3.5h-5V288H327.9z M352.9,288l-3.9-7.2c1.9-0.5,3.8-2.3,3.8-5.6c0-3.5-2.2-6.1-5.8-6.1h-8V288h3.7
		v-6.7h2.7l3.4,6.7H352.9z M349,275.1c0,1.6-1.1,2.6-2.5,2.6h-3.9v-5.1h3.9C347.9,272.6,349,273.6,349,275.1 M371.5,288l-6.6-18.9
		h-4.6l-6.6,18.9h4.1l1.1-3.2h7.4l1.1,3.2H371.5z M365.3,281.2h-5.3l2.7-8.1L365.3,281.2z M388.5,288v-18.9h-3.7v11.9l-7.9-11.9
		h-3.8V288h3.7v-12.3l8.2,12.3H388.5z M390.7,285.1c1.6,1.7,4,2.9,7.3,2.9c4.6,0,6.9-2.5,6.9-5.9c0-6.8-9.9-4.9-9.9-7.8
		c0-1.1,0.9-1.8,2.4-1.8c1.7,0,3.6,0.6,5,2l2-2.9c-1.7-1.7-4-2.6-6.7-2.6c-4,0-6.5,2.5-6.5,5.6c0,6.9,9.9,4.7,9.9,7.8c0,1.1-1,2-3,2
		c-2.4,0-4.2-1.2-5.5-2.5L390.7,285.1 M411,288v-7.9h8.3v-3.5H411v-4h8.5v-3.5h-12.1V288H411z M434.2,288v-3.5h-8.5v-4.3h8.3v-3.5
		h-8.3v-4h8.5v-3.5H422V288H434.2z M450.9,288l-3.9-7.2c1.9-0.5,3.8-2.3,3.8-5.6c0-3.5-2.2-6.1-5.8-6.1h-8V288h3.7v-6.7h2.7l3.4,6.7
		H450.9z M447.1,275.1c0,1.6-1.1,2.6-2.5,2.6h-3.9v-5.1h3.9C446,272.6,447.1,273.6,447.1,275.1 M212.8,122.2
		c-3.9-2.7-9.4-2.8-14.3-2.8h-19.6c-0.6,0-1.1,0.4-1.2,1l-9.4,51.4c-0.1,0.7,0.4,1.4,1.2,1.4h13.3c0.6,0,1.1-0.4,1.2-1l3.4-18.2
		c0.1-0.6,0.6-1,1.2-1h6.9c4.9,0,9.9-0.2,14.4-3.5c4.3-3.2,7.1-8.1,8-13.2C218.8,130.5,217,125.2,212.8,122.2 M203.5,136.9
		c-0.9,4.7-5,5.3-8.4,5.3h-4.2c-0.8,0-1.3-0.7-1.2-1.4l1.4-8c0.1-0.6,0.6-1,1.2-1h5.3c1.5,0,3.1,0,4.3,0.7
		C203.3,133.3,203.9,135,203.5,136.9 M250.8,136.9c-0.9,4.7-5,5.3-8.4,5.3h-4.2c-0.8,0-1.3-0.7-1.2-1.4l1.4-8c0.1-0.6,0.6-1,1.2-1
		h5.3c1.5,0,3.1,0,4.3,0.7C250.5,133.3,251.1,135,250.8,136.9 M267,135.5c1-5.2-0.1-10-3.8-12.9c-3.3-2.7-8-3.3-12.5-3.3h-24.7
		c-0.6,0-1.1,0.4-1.2,1l-9.4,51.4c-0.1,0.7,0.4,1.4,1.2,1.4h13.3c0.6,0,1.1-0.4,1.2-1l3.4-18.2c0.1-0.6,0.6-1,1.2-1h2.8
		c0.6,0,1.1,0.4,1.2,1l3.3,18.2c0.1,0.6,0.6,1,1.2,1h14.8c0.8,0,1.3-0.7,1.2-1.5l-4.4-21.1c-0.1-0.5,0.2-1.1,0.7-1.3
		C262.3,146.4,265.7,142.3,267,135.5 M354.5,155.6c1.1-5.7-0.6-10.6-5-13.3c-4-2.3-8.9-3.2-13.5-4.2c-1.8-0.5-5.4-1-4.9-3.7
		c0.5-2.8,3.6-3.4,5.6-3.4c3.5,0,5.9,1.1,6.9,4.1c0.2,0.6,0.9,0.9,1.5,0.8l11.3-3.4c0.6-0.2,1-0.8,0.8-1.4
		c-1.8-8.3-9.3-11.7-17.7-11.7c-5,0-10.6,1-15.3,3.9c-4.6,3-8,8-9,13.1c-2.3,12.4,8.4,15.1,17.6,17c2.2,0.5,6,1.1,5.4,4.3
		c-0.6,2.9-4.6,3.2-6.6,3.2c-4.1,0-7.1-1.4-7.9-5.2c-0.1-0.6-0.8-1-1.4-0.9l-12.6,2.3c-0.6,0.1-1.1,0.7-1,1.3
		c1.1,10.5,9.4,14.8,19.7,14.8C339.1,173.1,352.1,168.1,354.5,155.6 M403.5,155.6c1.1-5.7-0.6-10.6-5-13.3c-4-2.3-8.9-3.2-13.5-4.2
		c-1.8-0.5-5.4-1-4.9-3.7c0.5-2.8,3.6-3.4,5.6-3.4c3.5,0,5.9,1.1,6.9,4.1c0.2,0.6,0.9,0.9,1.5,0.8l11.3-3.4c0.6-0.2,1-0.8,0.8-1.4
		c-1.8-8.3-9.3-11.7-17.7-11.7c-5,0-10.6,1-15.3,3.9c-4.6,3-8,8-9,13.1c-2.3,12.4,8.4,15.1,17.6,17c2.2,0.5,6,1.1,5.4,4.3
		c-0.6,2.9-4.6,3.2-6.6,3.2c-4.1,0-7.1-1.4-7.9-5.2c-0.1-0.6-0.8-1-1.4-0.9l-12.6,2.3c-0.6,0.1-1.1,0.7-1,1.3
		c1.1,10.5,9.4,14.8,19.7,14.8C388.1,173.1,401.2,168.1,403.5,155.6 M308.2,138.9c0.9-1.1,0.4-2-0.9-2h-10.4c-0.4,0-0.7,0.2-0.9,0.4
		l-7.2,8.9c-0.6,0.8-0.1,2,0.9,2h10.5c0.4,0,0.7-0.2,0.9-0.5L308.2,138.9z M288,131.8h20.8c0.6,0,1.1-0.4,1.2-1l1.8-10
		c0.1-0.7-0.4-1.4-1.2-1.4H275c-0.6,0-1.1,0.4-1.2,1l-9.4,51.4c-0.1,0.7,0.4,1.4,1.2,1.4h35.5c0.6,0,1.1-0.4,1.2-1l1.9-10.4
		c0.1-0.7-0.4-1.4-1.2-1.4h-19.9c-0.8,0-1.3-0.7-1.2-1.4l4.8-26.1C286.9,132.2,287.4,131.8,288,131.8 M395.7,197.7
		c0.9-1.1,0.4-2-0.9-2h-10.4c-0.4,0-0.7,0.2-0.9,0.5l-7.2,8.9c-0.6,0.8-0.1,2,0.9,2h10.6c0.4,0,0.7-0.2,0.9-0.5L395.7,197.7z
		 M375.4,190.7h20.8c0.6,0,1.1-0.4,1.2-1l1.8-10c0.1-0.7-0.4-1.4-1.2-1.4h-35.7c-0.6,0-1.1,0.4-1.2,1l-9.3,51.4
		c-0.1,0.7,0.4,1.4,1.2,1.4h35.5c0.6,0,1.1-0.4,1.2-1l1.9-10.4c0.1-0.7-0.4-1.4-1.2-1.4h-19.9c-0.8,0-1.3-0.7-1.2-1.4l4.8-26.1
		C374.3,191.1,374.8,190.7,375.4,190.7 M288.1,205.4c-0.9,4.8-3.1,14.1-9.9,14.1c-6.8,0-5.5-9.3-4.6-14.1c0.9-4.9,3.5-14.6,10-14.6
		C290.2,190.7,289.1,200.5,288.1,205.4 M286,178.3c-15.4,0-26.4,11.4-29.3,27c-2.8,14.8,3.8,26.7,19.2,26.7
		c15.3,0,26.4-11.9,29.2-26.7C308,189.7,301.4,178.3,286,178.3 M345.7,178.3c-0.6,0-1.1,0.5-1.2,1l-3.9,24.8
		c-0.2,1.2-1.9,1.4-2.3,0.3L329,179c-0.2-0.5-0.6-0.8-1.1-0.8H315c-0.6,0-1.1,0.4-1.2,1l-9.4,51.4c-0.1,0.7,0.4,1.4,1.2,1.4h12.3
		c0.6,0,1.1-0.4,1.2-1l3.8-25.4c0.2-1.2,1.9-1.4,2.3-0.2l9.3,25.8c0.2,0.5,0.6,0.8,1.1,0.8h10.8c0.6,0,1.1-0.4,1.2-1l9.4-51.4
		c0.1-0.7-0.4-1.4-1.2-1.4H345.7z M437.8,178.3c-0.4,0-0.8,0.2-1,0.5l-10,15.1c-0.6,0.8-1.8,0.7-2.2-0.3l-4.6-14.5
		c-0.2-0.5-0.6-0.8-1.1-0.8h-14.4c-0.8,0-1.4,0.8-1.1,1.6L414,209l0.1,0.6l-3.8,21c-0.1,0.7,0.4,1.4,1.2,1.4H424
		c0.6,0,1.1-0.4,1.2-1l3.9-21.5l0.2-0.5l20.2-28.9c0.6-0.8,0-1.9-1-1.9H437.8z M167.3,179.7c-0.3-0.8-1.3-1.4-2.1-1.4h-15.4
		c-0.8,0-1.2,0.6-0.9,1.4l21.3,51c0.3,0.8,1.3,1.4,2.1,1.4h15.4c0.8,0,1.2-0.6,0.9-1.4L167.3,179.7z M225.6,205.2
		c-0.2,0.4-0.9,0.3-0.9-0.2l-1.8-25.7c0-0.6-0.6-1.1-1.2-1.1h-18.2c-0.6,0-1.1,0.4-1.2,1l-9.4,51.4c-0.1,0.7,0.4,1.4,1.2,1.4h9.2
		c0.6,0,1.1-0.4,1.2-1l6.2-34c0.1-0.5,1-0.5,1,0.1l2.2,33.8c0,0.6,0.6,1.1,1.2,1.1h8c0.5,0,0.9-0.3,1.1-0.7l14.8-34.9
		c0.2-0.4,0.8-0.2,0.8,0.2l-6.2,34c-0.1,0.7,0.4,1.4,1.2,1.4h12c0.6,0,1.1-0.4,1.2-1l9.4-51.4c0.1-0.7-0.4-1.4-1.2-1.4h-18.2
		c-0.4,0-0.9,0.3-1.1,0.7L225.6,205.2z M173.2,120.6c0.5-0.6,0.3-1.2-0.6-1.2H159c-0.8,0-1.9,0.5-2.5,1.2l-8.3,10.1
		c-0.5,0.6-1.2,0.5-1.5-0.2l-4-9.6c-0.3-0.8-1.3-1.4-2.1-1.4h-15.4c-0.8,0-1.2,0.6-0.9,1.4l10.2,24.5c0.3,0.8,0.2,1.9-0.4,2.6
		L114.4,172c-0.5,0.6-0.3,1.2,0.6,1.2h13.6c0.8,0,1.9-0.5,2.5-1.2l8.8-10.7c0.5-0.6,1.2-0.5,1.5,0.2l4.3,10.2
		c0.3,0.8,1.3,1.4,2.1,1.4h15.4c0.8,0,1.2-0.6,0.9-1.4l-10.5-25.1c-0.3-0.8-0.2-1.9,0.4-2.6L173.2,120.6z M450.8,248.4H115.2v3
		h335.6V248.4z"/>
</g>
</svg>
